<?xml version="1.0" encoding="utf-8"?>
<!-- Generator: Adobe Illustrator 16.2.1, SVG Export Plug-In . SVG Version: 6.00 Build 0)  -->
<!DOCTYPE svg PUBLIC "-//W3C//DTD SVG 1.1//EN" "http://www.w3.org/Graphics/SVG/1.1/DTD/svg11.dtd">
<svg version="1.1" id="Capa_1" xmlns="http://www.w3.org/2000/svg" xmlns:xlink="http://www.w3.org/1999/xlink" x="0px" y="0px"
	 width="36.919px" height="36.919px" viewBox="0 0 36.919 36.919" enable-background="new 0 0 36.919 36.919" xml:space="preserve">
<g>
	<circle opacity="0.2" fill="#020400" cx="18.459" cy="18.459" r="18.459"/>
	<g>
		<path opacity="0.2" fill="#020400" d="M18.459,5.282c-7.277,0-13.178,5.899-13.178,13.177c0,7.279,5.9,13.178,13.178,13.178
			s13.178-5.898,13.178-13.178C31.637,11.181,25.736,5.282,18.459,5.282z M18.459,22.746c-2.338,0-4.234-1.895-4.234-4.233
			c0-2.338,1.896-4.234,4.234-4.234s4.234,1.896,4.234,4.234C22.693,20.852,20.797,22.746,18.459,22.746z"/>
	</g>
	<g>
		<circle fill="#FFFFFF" cx="18.459" cy="18.459" r="2.167"/>
		<path fill="#FFFFFF" d="M18.459,5.286c-4.257,0-8.042,2.021-10.45,5.154l1.309,1.003l5.811,4.459
			c0.768-0.999,1.974-1.643,3.331-1.643s2.563,0.644,3.332,1.643l5.811-4.459l1.308-1.003C26.501,7.307,22.717,5.286,18.459,5.286z"
			/>
	</g>
	<path fill="#FFFFFF" d="M20.982,3.128l-1.119-1.283l-1.404-1.611l-1.404,1.611l-1.118,1.283C8.555,4.333,2.92,10.737,2.92,18.459
		c0,8.583,6.958,15.539,15.539,15.539c8.582,0,15.539-6.956,15.539-15.539C33.998,10.737,28.363,4.333,20.982,3.128z M29.033,29.033
		c-2.824,2.824-6.58,4.38-10.574,4.38s-7.75-1.556-10.574-4.38s-4.379-6.58-4.379-10.574c0-3.995,1.555-7.75,4.379-10.574
		s6.58-4.38,10.574-4.38s7.75,1.556,10.574,4.38s4.38,6.579,4.38,10.574C33.413,22.453,31.857,26.209,29.033,29.033z"/>
</g>
</svg>
