<?xml version="1.0" encoding="utf-8"?>
<!-- Generator: Adobe Illustrator 16.2.1, SVG Export Plug-In . SVG Version: 6.00 Build 0)  -->
<!DOCTYPE svg PUBLIC "-//W3C//DTD SVG 1.1//EN" "http://www.w3.org/Graphics/SVG/1.1/DTD/svg11.dtd">
<svg version="1.1" id="Capa_1" xmlns="http://www.w3.org/2000/svg" xmlns:xlink="http://www.w3.org/1999/xlink" x="0px" y="0px"
	 width="416.812px" height="77.481px" viewBox="0 0 416.812 77.481" enable-background="new 0 0 416.812 77.481"
	 xml:space="preserve">
<g>
	<path fill="#D5DCE4" d="M0.274,40.411L14.148,9.696c0.137-0.274,0.365-0.502,0.775-0.502h0.457c0.41,0,0.639,0.228,0.775,0.502
		l13.783,30.715c0.273,0.594-0.091,1.187-0.775,1.187h-1.826c-0.41,0-0.685-0.273-0.775-0.502l-3.378-7.53H6.983l-3.332,7.53
		c-0.091,0.229-0.365,0.502-0.776,0.502H1.05C0.365,41.598,0,41.005,0.274,40.411z M21.952,30.736
		c-2.236-4.975-4.427-9.995-6.663-14.97h-0.365l-6.663,14.97H21.952z"/>
	<path fill="#D5DCE4" d="M65.954,10.518c0-0.456,0.365-0.867,0.867-0.867h1.779c0.457,0,0.867,0.411,0.867,0.867V38.54h13.145
		c0.502,0,0.867,0.411,0.867,0.867v1.323c0,0.457-0.365,0.867-0.867,0.867H66.821c-0.502,0-0.867-0.41-0.867-0.867V10.518z"/>
	<path fill="#D5DCE4" d="M133.094,9.194c4.609,0,7.941,1.597,11.045,4.244c0.365,0.365,0.411,0.913,0.046,1.278l-1.232,1.232
		c-0.365,0.457-0.73,0.411-1.187-0.045c-2.373-2.054-5.613-3.423-8.717-3.423c-7.211,0-12.733,6.07-12.733,13.144
		c0,7.028,5.522,13.099,12.733,13.099c3.97,0,6.298-1.598,8.717-3.423c0.456-0.365,0.821-0.319,1.095-0.137l1.369,1.232
		c0.365,0.274,0.274,0.913-0.045,1.232c-3.104,3.013-7.028,4.427-11.091,4.427c-9.128,0-16.476-7.256-16.476-16.384
		S123.966,9.194,133.094,9.194z"/>
	<path fill="#D5DCE4" d="M177.871,40.411l13.874-30.715c0.137-0.274,0.365-0.502,0.775-0.502h0.457c0.41,0,0.639,0.228,0.775,0.502
		l13.783,30.715c0.273,0.594-0.091,1.187-0.775,1.187h-1.826c-0.41,0-0.685-0.273-0.775-0.502l-3.378-7.53H184.58l-3.332,7.53
		c-0.091,0.229-0.365,0.502-0.775,0.502h-1.826C177.962,41.598,177.597,41.005,177.871,40.411z M199.549,30.736
		c-2.236-4.975-4.427-9.995-6.663-14.97h-0.365l-6.663,14.97H199.549z M188.14,4.858c-0.183-0.365,0-0.73,0.273-0.867l6.846-3.833
		c0.274-0.183,0.959-0.274,1.188,0.137l0.821,1.643c0.183,0.365,0.091,0.821-0.274,0.958l-7.348,3.058
		c-0.639,0.273-0.867,0.273-1.05-0.092L188.14,4.858z"/>
	<path fill="#D5DCE4" d="M240.265,39.909l16.567-26.927v-0.137h-14.376c-0.457,0-0.867-0.411-0.867-0.867v-1.461
		c0-0.456,0.41-0.867,0.867-0.867h18.483c0.456,0,0.867,0.411,0.867,0.867v0.594l-16.841,27.246v0.046h15.061
		c0.502,0,0.867,0.411,0.867,0.867v1.46c0,0.457-0.365,0.867-0.867,0.867h-18.895c-0.456,0-0.867-0.41-0.867-0.867V39.909z"/>
	<path fill="#D5DCE4" d="M294.58,40.411l13.874-30.715c0.138-0.274,0.365-0.502,0.776-0.502h0.456c0.411,0,0.64,0.228,0.776,0.502
		l13.782,30.715c0.274,0.594-0.091,1.187-0.775,1.187h-1.825c-0.411,0-0.685-0.273-0.776-0.502l-3.377-7.53h-16.202l-3.332,7.53
		c-0.091,0.229-0.364,0.502-0.775,0.502h-1.825C294.672,41.598,294.307,41.005,294.58,40.411z M316.259,30.736
		c-2.236-4.975-4.427-9.995-6.663-14.97h-0.365l-6.663,14.97H316.259z"/>
	<path fill="#D5DCE4" d="M360.26,10.518c0-0.456,0.365-0.867,0.867-0.867h11.82c5.477,0,9.949,4.29,9.949,9.721
		c0,4.199-2.783,7.713-6.754,9.311l6.252,11.592c0.319,0.594,0,1.323-0.775,1.323h-2.328c-0.41,0-0.639-0.228-0.729-0.41
		l-6.07-12.095h-8.717V40.73c0,0.457-0.411,0.867-0.867,0.867h-1.78c-0.502,0-0.867-0.41-0.867-0.867V10.518z M372.72,26.081
		c3.514,0,6.571-2.921,6.571-6.664c0-3.468-3.058-6.435-6.571-6.435h-8.854v13.098H372.72z"/>
</g>
<g>
	<g>
		<path fill="#5B5B5F" d="M174.693,63.575c0-0.132,0.105-0.25,0.251-0.25h2.887c1.608,0,2.703,1.041,2.703,2.426
			c0,1.015-0.673,1.753-1.292,2.109c0.698,0.29,1.582,0.936,1.582,2.148c0,1.477-1.174,2.545-2.874,2.545h-3.006
			c-0.146,0-0.251-0.119-0.251-0.251V63.575z M178.056,71.67c0.962,0,1.661-0.725,1.661-1.674c0-0.937-0.857-1.622-1.886-1.622
			h-2.175v3.296H178.056z M177.831,67.465c1.016,0,1.582-0.726,1.582-1.648c0-0.949-0.566-1.582-1.582-1.582h-2.148v3.23H177.831z"
			/>
		<path fill="#5B5B5F" d="M193.709,68.11l-3.177-4.403c-0.105-0.171,0-0.382,0.211-0.382h0.619c0.093,0,0.172,0.065,0.211,0.118
			l2.663,3.679l2.663-3.679c0.04-0.053,0.119-0.118,0.211-0.118h0.62c0.211,0,0.316,0.211,0.211,0.382l-3.217,4.391v4.205
			c0,0.132-0.119,0.251-0.251,0.251h-0.514c-0.146,0-0.251-0.119-0.251-0.251V68.11z"/>
		<path fill="#5B5B5F" d="M220.142,63.575c0-0.132,0.105-0.25,0.251-0.25h2.913c1.622,0,2.953,1.318,2.953,2.913
			c0,1.635-1.331,2.967-2.939,2.967h-2.176v3.098c0,0.132-0.118,0.251-0.25,0.251h-0.501c-0.146,0-0.251-0.119-0.251-0.251V63.575z
			 M223.24,68.229c1.081,0,2.004-0.884,2.004-2.018c0-1.067-0.923-1.885-2.004-1.885h-2.097v3.902H223.24z"/>
		<path fill="#5B5B5F" d="M236.837,63.575c0-0.132,0.119-0.25,0.251-0.25h0.501c0.145,0,0.25,0.118,0.25,0.25v5.498
			c0,1.503,0.937,2.676,2.479,2.676c1.556,0,2.505-1.146,2.505-2.649v-5.524c0-0.132,0.105-0.25,0.251-0.25h0.501
			c0.132,0,0.25,0.118,0.25,0.25v5.577c0,2.004-1.424,3.533-3.507,3.533c-2.069,0-3.48-1.529-3.48-3.533V63.575z"/>
		<path fill="#5B5B5F" d="M255.352,63.431c0-0.132,0.118-0.237,0.25-0.237h0.33l5.945,7.409h0.026v-7.027
			c0-0.132,0.105-0.25,0.251-0.25h0.461c0.132,0,0.251,0.118,0.251,0.25v8.873c0,0.132-0.119,0.237-0.251,0.237h-0.237l-6.051-7.555
			h-0.014v7.172c0,0.132-0.105,0.251-0.25,0.251h-0.462c-0.132,0-0.25-0.119-0.25-0.251V63.431z"/>
		<path fill="#5B5B5F" d="M275.816,64.208h-2.294c-0.146,0-0.251-0.118-0.251-0.25v-0.383c0-0.132,0.105-0.25,0.251-0.25h5.59
			c0.145,0,0.25,0.118,0.25,0.25v0.383c0,0.132-0.105,0.25-0.25,0.25h-2.294v8.095c0,0.132-0.119,0.251-0.251,0.251h-0.501
			c-0.132,0-0.25-0.119-0.25-0.251V64.208z"/>
		<path fill="#5B5B5F" d="M288.004,72.211l4.008-8.873c0.039-0.079,0.105-0.145,0.224-0.145h0.132c0.119,0,0.185,0.065,0.225,0.145
			l3.981,8.873c0.079,0.171-0.026,0.343-0.225,0.343h-0.527c-0.118,0-0.197-0.079-0.224-0.146l-0.976-2.175h-4.681l-0.962,2.175
			c-0.026,0.066-0.105,0.146-0.225,0.146h-0.527C288.03,72.554,287.925,72.382,288.004,72.211z M294.266,69.416
			c-0.646-1.438-1.278-2.888-1.925-4.324h-0.105l-1.925,4.324H294.266z"/>
		<path fill="#5B5B5F" d="M318.853,63.575c0-0.132,0.105-0.25,0.25-0.25h5.194c0.146,0,0.251,0.118,0.251,0.25v0.383
			c0,0.132-0.105,0.25-0.251,0.25h-4.43v3.612h3.784c0.132,0,0.25,0.119,0.25,0.251v0.382c0,0.132-0.118,0.251-0.25,0.251h-3.784
			v3.599c0,0.132-0.118,0.251-0.25,0.251h-0.515c-0.145,0-0.25-0.119-0.25-0.251V63.575z"/>
		<path fill="#5B5B5F" d="M335.311,63.575c0-0.132,0.105-0.25,0.25-0.25h3.415c1.582,0,2.874,1.239,2.874,2.808
			c0,1.213-0.805,2.229-1.951,2.689l1.806,3.349c0.093,0.172,0,0.383-0.224,0.383h-0.673c-0.118,0-0.185-0.066-0.211-0.119
			l-1.753-3.493h-2.519v3.361c0,0.132-0.118,0.251-0.25,0.251h-0.515c-0.145,0-0.25-0.119-0.25-0.251V63.575z M338.909,68.071
			c1.016,0,1.898-0.844,1.898-1.925c0-1.002-0.883-1.859-1.898-1.859h-2.558v3.784H338.909z"/>
		<path fill="#5B5B5F" d="M351.716,72.211l4.008-8.873c0.039-0.079,0.105-0.145,0.224-0.145h0.132c0.119,0,0.185,0.065,0.225,0.145
			l3.981,8.873c0.079,0.171-0.026,0.343-0.225,0.343h-0.527c-0.118,0-0.197-0.079-0.224-0.146l-0.976-2.175h-4.681l-0.962,2.175
			c-0.026,0.066-0.105,0.146-0.225,0.146h-0.527C351.742,72.554,351.637,72.382,351.716,72.211z M357.978,69.416
			c-0.646-1.438-1.278-2.888-1.925-4.324h-0.105l-1.925,4.324H357.978z"/>
		<path fill="#5B5B5F" d="M370.678,63.575c0-0.132,0.119-0.25,0.251-0.25h0.527c0.132,0,0.25,0.118,0.25,0.25v8.728
			c0,0.132-0.118,0.251-0.25,0.251h-0.527c-0.132,0-0.251-0.119-0.251-0.251V63.575z"/>
		<path fill="#5B5B5F" d="M383.354,63.575c0-0.132,0.105-0.25,0.25-0.25h0.515c0.132,0,0.25,0.118,0.25,0.25v8.095h3.797
			c0.146,0,0.251,0.119,0.251,0.251v0.382c0,0.132-0.105,0.251-0.251,0.251h-4.562c-0.145,0-0.25-0.119-0.25-0.251V63.575z"/>
		<path fill="#5B5B5F" d="M398.785,63.575c0-0.132,0.105-0.25,0.25-0.25h5.194c0.146,0,0.251,0.118,0.251,0.25v0.383
			c0,0.132-0.105,0.25-0.251,0.25h-4.43v3.217h3.784c0.132,0,0.25,0.119,0.25,0.251v0.382c0,0.146-0.118,0.251-0.25,0.251H399.8
			v3.361h4.43c0.146,0,0.251,0.119,0.251,0.251v0.382c0,0.132-0.105,0.251-0.251,0.251h-5.194c-0.145,0-0.25-0.119-0.25-0.251
			V63.575z"/>
	</g>
</g>
</svg>
