<?xml version="1.0" encoding="utf-8"?>
<!-- Generator: Adobe Illustrator 16.2.1, SVG Export Plug-In . SVG Version: 6.00 Build 0)  -->
<!DOCTYPE svg PUBLIC "-//W3C//DTD SVG 1.1//EN" "http://www.w3.org/Graphics/SVG/1.1/DTD/svg11.dtd">
<svg version="1.1" id="Capa_1" xmlns="http://www.w3.org/2000/svg" xmlns:xlink="http://www.w3.org/1999/xlink" x="0px" y="0px"
	 width="410.035px" height="315.427px" viewBox="0 0 410.035 315.427" enable-background="new 0 0 410.035 315.427"
	 xml:space="preserve">
<g>
	<path fill="#B2B8C1" d="M0.27,61.545l13.651-30.222c0.135-0.27,0.359-0.494,0.764-0.494h0.449c0.404,0,0.629,0.225,0.764,0.494
		l13.562,30.222c0.269,0.583-0.09,1.167-0.764,1.167h-1.796c-0.404,0-0.673-0.27-0.763-0.494l-3.323-7.409H6.871l-3.278,7.409
		c-0.09,0.225-0.359,0.494-0.764,0.494H1.033C0.359,62.712,0,62.128,0.27,61.545z M21.6,52.025
		c-2.201-4.895-4.356-9.835-6.556-14.729h-0.359L8.128,52.025H21.6z"/>
	<path fill="#B2B8C1" d="M64.882,32.131c0-0.449,0.359-0.854,0.853-0.854h1.751c0.449,0,0.853,0.404,0.853,0.854v27.572h12.933
		c0.494,0,0.854,0.404,0.854,0.854v1.302c0,0.449-0.359,0.854-0.854,0.854H65.735c-0.494,0-0.853-0.404-0.853-0.854V32.131z"/>
	<path fill="#B2B8C1" d="M130.934,30.829c4.536,0,7.814,1.572,10.868,4.177c0.359,0.359,0.404,0.897,0.045,1.257l-1.213,1.213
		c-0.359,0.449-0.718,0.404-1.167-0.045c-2.335-2.021-5.523-3.368-8.577-3.368c-7.095,0-12.529,5.973-12.529,12.933
		c0,6.916,5.434,12.888,12.529,12.888c3.907,0,6.197-1.572,8.577-3.368c0.449-0.359,0.809-0.314,1.078-0.135l1.347,1.213
		c0.359,0.27,0.27,0.898-0.044,1.212c-3.054,2.964-6.916,4.356-10.913,4.356c-8.981,0-16.211-7.141-16.211-16.122
		C114.722,38.059,121.952,30.829,130.934,30.829z"/>
	<path fill="#B2B8C1" d="M174.979,61.545l13.651-30.222c0.135-0.27,0.359-0.494,0.764-0.494h0.449c0.404,0,0.629,0.225,0.764,0.494
		l13.562,30.222c0.269,0.583-0.09,1.167-0.764,1.167h-1.796c-0.404,0-0.673-0.27-0.763-0.494l-3.323-7.409H181.58l-3.278,7.409
		c-0.09,0.225-0.359,0.494-0.764,0.494h-1.796C175.068,62.712,174.709,62.128,174.979,61.545z M196.309,52.025
		c-2.201-4.895-4.356-9.835-6.556-14.729h-0.359l-6.557,14.729H196.309z M185.083,26.562c-0.18-0.359,0-0.718,0.27-0.853
		l6.736-3.772c0.27-0.18,0.943-0.27,1.167,0.135l0.809,1.617c0.179,0.359,0.089,0.808-0.27,0.943l-7.23,3.009
		c-0.629,0.27-0.854,0.27-1.033-0.09L185.083,26.562z"/>
	<path fill="#B2B8C1" d="M236.359,61.051l16.301-26.495v-0.135h-14.146c-0.449,0-0.854-0.404-0.854-0.854v-1.437
		c0-0.449,0.404-0.854,0.854-0.854h18.187c0.449,0,0.854,0.404,0.854,0.854v0.583l-16.57,26.809v0.045h14.819
		c0.493,0,0.853,0.404,0.853,0.854v1.437c0,0.449-0.359,0.854-0.853,0.854h-18.592c-0.448,0-0.853-0.404-0.853-0.854V61.051z"/>
	<path fill="#B2B8C1" d="M289.791,61.545l13.651-30.222c0.135-0.27,0.359-0.494,0.764-0.494h0.448c0.404,0,0.629,0.225,0.764,0.494
		l13.562,30.222c0.27,0.583-0.09,1.167-0.764,1.167h-1.797c-0.403,0-0.673-0.27-0.763-0.494l-3.323-7.409h-15.941l-3.279,7.409
		c-0.089,0.225-0.358,0.494-0.763,0.494h-1.796C289.88,62.712,289.521,62.128,289.791,61.545z M311.121,52.025
		c-2.199-4.895-4.355-9.835-6.556-14.729h-0.359l-6.557,14.729H311.121z"/>
	<path fill="#B2B8C1" d="M354.404,32.131c0-0.449,0.359-0.854,0.853-0.854h11.631c5.389,0,9.79,4.221,9.79,9.565
		c0,4.131-2.74,7.589-6.646,9.161l6.152,11.406c0.314,0.583,0,1.302-0.764,1.302h-2.29c-0.404,0-0.629-0.225-0.719-0.404
		l-5.973-11.9h-8.577v11.451c0,0.449-0.404,0.854-0.854,0.854h-1.751c-0.493,0-0.853-0.404-0.853-0.854V32.131z M366.663,47.444
		c3.458,0,6.467-2.874,6.467-6.556c0-3.413-3.009-6.332-6.467-6.332h-8.712v12.888H366.663z"/>
</g>
<g>
	<path fill="#B2B8C1" d="M77.867,96.154c0-0.253,0.203-0.481,0.456-0.481h6.003c4.889,0,8.891,3.977,8.891,8.84
		c0,4.914-4.002,8.891-8.891,8.891h-6.003c-0.253,0-0.456-0.228-0.456-0.481V96.154z M84.021,110.313c3.293,0,5.699-2.482,5.699-5.8
		c0-3.293-2.406-5.775-5.699-5.775h-2.888v11.576H84.021z"/>
	<path fill="#B2B8C1" d="M130.492,96.154c0-0.253,0.203-0.481,0.481-0.481h10.309c0.279,0,0.481,0.228,0.481,0.481v2.077
		c0,0.253-0.203,0.481-0.481,0.481h-7.498v4.154h6.256c0.253,0,0.481,0.228,0.481,0.481v2.102c0,0.279-0.228,0.481-0.481,0.481
		h-6.256v4.433h7.498c0.279,0,0.481,0.228,0.481,0.481v2.077c0,0.253-0.203,0.481-0.481,0.481h-10.309
		c-0.278,0-0.481-0.228-0.481-0.481V96.154z"/>
	<path fill="#B2B8C1" d="M178.281,110.921l0.912-1.57c0.203-0.354,0.633-0.354,0.861-0.177c0.126,0.076,2.178,1.57,3.825,1.57
		c1.317,0,2.305-0.861,2.305-1.95c0-1.292-1.089-2.179-3.217-3.04c-2.381-0.962-4.762-2.482-4.762-5.471
		c0-2.254,1.672-4.863,5.699-4.863c2.583,0,4.559,1.317,5.066,1.697c0.253,0.152,0.329,0.583,0.152,0.836l-0.962,1.444
		c-0.203,0.304-0.583,0.507-0.887,0.304c-0.203-0.127-2.127-1.393-3.521-1.393c-1.444,0-2.229,0.962-2.229,1.773
		c0,1.19,0.937,2.001,2.989,2.837c2.457,0.988,5.294,2.457,5.294,5.724c0,2.609-2.254,5.016-5.826,5.016
		c-3.192,0-5.066-1.495-5.573-1.976C178.179,111.453,178.053,111.326,178.281,110.921z"/>
	<path fill="#B2B8C1" d="M226.981,96.154c0-0.253,0.202-0.481,0.456-0.481h6.003c4.889,0,8.891,3.977,8.891,8.84
		c0,4.914-4.002,8.891-8.891,8.891h-6.003c-0.254,0-0.456-0.228-0.456-0.481V96.154z M233.136,110.313
		c3.293,0,5.699-2.482,5.699-5.8c0-3.293-2.406-5.775-5.699-5.775h-2.889v11.576H233.136z"/>
	<path fill="#B2B8C1" d="M279.607,96.154c0-0.253,0.202-0.481,0.48-0.481h10.309c0.279,0,0.482,0.228,0.482,0.481v2.077
		c0,0.253-0.203,0.481-0.482,0.481h-7.497v4.154h6.257c0.253,0,0.48,0.228,0.48,0.481v2.102c0,0.279-0.228,0.481-0.48,0.481h-6.257
		v4.433h7.497c0.279,0,0.482,0.228,0.482,0.481v2.077c0,0.253-0.203,0.481-0.482,0.481h-10.309c-0.278,0-0.48-0.228-0.48-0.481
		V96.154z"/>
	<path fill="#B2B8C1" d="M75.562,160.82l7.877-17.047c0.076-0.152,0.203-0.278,0.431-0.278h0.253c0.253,0,0.354,0.126,0.431,0.278
		l7.801,17.047c0.152,0.329-0.051,0.658-0.431,0.658h-2.204c-0.38,0-0.557-0.152-0.734-0.507l-1.241-2.735h-7.574l-1.241,2.735
		c-0.101,0.253-0.329,0.507-0.734,0.507h-2.204C75.612,161.478,75.41,161.149,75.562,160.82z M86.504,155.424l-2.533-5.573h-0.076
		l-2.482,5.573H86.504z"/>
	<path fill="#B2B8C1" d="M128.593,144.229c0-0.253,0.203-0.481,0.481-0.481h7.245c3.039,0,5.521,2.432,5.521,5.446
		c0,2.33-1.545,4.23-3.749,5.116l3.47,6.434c0.177,0.329,0,0.734-0.431,0.734h-2.66c-0.228,0-0.354-0.127-0.405-0.229l-3.369-6.712
		h-2.812v6.459c0,0.253-0.228,0.481-0.481,0.481h-2.331c-0.278,0-0.481-0.229-0.481-0.481V144.229z M136.04,151.828
		c1.342,0,2.507-1.166,2.507-2.584c0-1.342-1.165-2.457-2.507-2.457h-4.129v5.041H136.04z"/>
	<path fill="#B2B8C1" d="M179.395,144.229c0-0.253,0.203-0.481,0.481-0.481h7.244c3.04,0,5.522,2.432,5.522,5.446
		c0,2.33-1.545,4.23-3.749,5.116l3.47,6.434c0.177,0.329,0,0.734-0.431,0.734h-2.66c-0.228,0-0.354-0.127-0.405-0.229l-3.369-6.712
		h-2.812v6.459c0,0.253-0.228,0.481-0.481,0.481h-2.331c-0.278,0-0.481-0.229-0.481-0.481V144.229z M186.842,151.828
		c1.342,0,2.508-1.166,2.508-2.584c0-1.342-1.166-2.457-2.508-2.457h-4.129v5.041H186.842z"/>
	<path fill="#B2B8C1" d="M230.197,144.229c0-0.253,0.229-0.481,0.48-0.481h2.356c0.253,0,0.481,0.228,0.481,0.481v16.768
		c0,0.253-0.229,0.481-0.481,0.481h-2.356c-0.252,0-0.48-0.229-0.48-0.481V144.229z"/>
	<path fill="#B2B8C1" d="M272.059,144.229c0-0.253,0.202-0.481,0.481-0.481h5.801c3.014,0,5.344,2.026,5.344,4.686
		c0,1.951-1.596,3.47-2.786,4.027c1.343,0.431,3.293,1.799,3.293,4.129c0,2.837-2.432,4.889-5.522,4.889h-6.129
		c-0.279,0-0.481-0.229-0.481-0.481V144.229z M278.037,151.194c1.292,0,2.178-1.013,2.178-2.28s-0.886-2.153-2.178-2.153h-2.711
		v4.433H278.037z M278.391,158.489c1.267,0,2.28-0.988,2.28-2.305c0-1.267-1.268-2.204-2.584-2.204h-2.762v4.509H278.391z"/>
	<path fill="#B2B8C1" d="M319.315,160.82l7.878-17.047c0.076-0.152,0.202-0.278,0.43-0.278h0.254c0.254,0,0.354,0.126,0.431,0.278
		l7.802,17.047c0.151,0.329-0.051,0.658-0.432,0.658h-2.203c-0.38,0-0.557-0.152-0.734-0.507l-1.241-2.735h-7.573l-1.242,2.735
		c-0.101,0.253-0.328,0.507-0.734,0.507h-2.203C319.366,161.478,319.164,161.149,319.315,160.82z M330.257,155.424l-2.533-5.573
		h-0.076l-2.482,5.573H330.257z"/>
	<path fill="#B2B8C1" d="M80.248,194.862h-3.875c-0.279,0-0.481-0.228-0.481-0.481v-2.077c0-0.253,0.203-0.481,0.481-0.481h11.069
		c0.279,0,0.481,0.229,0.481,0.481v2.077c0,0.254-0.203,0.481-0.481,0.481h-3.875v14.21c0,0.253-0.228,0.48-0.481,0.48h-2.356
		c-0.253,0-0.481-0.228-0.481-0.48V194.862z"/>
	<path fill="#B2B8C1" d="M132.14,191.569c5.066,0,9.119,4.078,9.119,9.144c0,5.066-4.053,9.094-9.119,9.094
		s-9.093-4.027-9.093-9.094C123.046,195.647,127.074,191.569,132.14,191.569z M132.14,206.513c3.191,0,5.826-2.609,5.826-5.801
		s-2.634-5.851-5.826-5.851s-5.8,2.659-5.8,5.851S128.948,206.513,132.14,206.513z"/>
	<path fill="#B2B8C1" d="M178.509,192.303c0-0.253,0.203-0.481,0.456-0.481h6.003c4.889,0,8.891,3.977,8.891,8.84
		c0,4.914-4.002,8.891-8.891,8.891h-6.003c-0.253,0-0.456-0.228-0.456-0.48V192.303z M184.664,206.462
		c3.293,0,5.699-2.482,5.699-5.801c0-3.293-2.406-5.775-5.699-5.775h-2.887v11.576H184.664z"/>
	<path fill="#B2B8C1" d="M238.96,191.569c5.066,0,9.119,4.078,9.119,9.144c0,5.066-4.053,9.094-9.119,9.094
		c-5.065,0-9.093-4.027-9.093-9.094C229.868,195.647,233.895,191.569,238.96,191.569z M238.96,206.513
		c3.191,0,5.826-2.609,5.826-5.801s-2.635-5.851-5.826-5.851s-5.8,2.659-5.8,5.851S235.769,206.513,238.96,206.513z"/>
	<path fill="#B2B8C1" d="M76.828,255.145l0.912-1.57c0.203-0.354,0.633-0.354,0.861-0.177c0.126,0.075,2.178,1.57,3.825,1.57
		c1.317,0,2.305-0.861,2.305-1.951c0-1.291-1.089-2.178-3.217-3.039c-2.381-0.963-4.762-2.482-4.762-5.471
		c0-2.255,1.672-4.863,5.699-4.863c2.583,0,4.56,1.316,5.066,1.696c0.253,0.152,0.329,0.583,0.152,0.836l-0.962,1.444
		c-0.203,0.304-0.583,0.506-0.887,0.304c-0.203-0.127-2.127-1.394-3.521-1.394c-1.444,0-2.229,0.963-2.229,1.773
		c0,1.19,0.937,2.001,2.989,2.837c2.457,0.987,5.294,2.457,5.294,5.725c0,2.608-2.254,5.015-5.826,5.015
		c-3.192,0-5.066-1.494-5.573-1.976C76.727,255.677,76.6,255.55,76.828,255.145z"/>
	<path fill="#B2B8C1" d="M125.528,240.378c0-0.254,0.203-0.481,0.481-0.481h10.309c0.279,0,0.481,0.228,0.481,0.481v2.076
		c0,0.254-0.203,0.481-0.481,0.481h-7.498v4.154h6.256c0.253,0,0.481,0.228,0.481,0.481v2.102c0,0.279-0.228,0.482-0.481,0.482
		h-6.256v4.432h7.498c0.279,0,0.481,0.229,0.481,0.482v2.076c0,0.254-0.203,0.481-0.481,0.481h-10.309
		c-0.278,0-0.481-0.228-0.481-0.481V240.378z"/>
	<path fill="#B2B8C1" d="M211.583,240.555c-0.152-0.329,0.051-0.658,0.431-0.658h2.583c0.228,0,0.38,0.151,0.431,0.278l4.863,10.892
		h0.177l4.863-10.892c0.051-0.127,0.203-0.278,0.431-0.278h2.583c0.381,0,0.583,0.329,0.432,0.658l-7.853,17.047
		c-0.076,0.151-0.203,0.278-0.431,0.278h-0.253c-0.228,0-0.354-0.127-0.431-0.278L211.583,240.555z"/>
	<path fill="#B2B8C1" d="M264.615,240.378c0-0.254,0.202-0.481,0.48-0.481h10.309c0.279,0,0.482,0.228,0.482,0.481v2.076
		c0,0.254-0.203,0.481-0.482,0.481h-7.497v4.154h6.257c0.253,0,0.48,0.228,0.48,0.481v2.102c0,0.279-0.228,0.482-0.48,0.482h-6.257
		v4.432h7.497c0.279,0,0.482,0.229,0.482,0.482v2.076c0,0.254-0.203,0.481-0.482,0.481h-10.309c-0.278,0-0.48-0.228-0.48-0.481
		V240.378z"/>
	<path fill="#B2B8C1" d="M79.716,288.097c0.025-0.202,0.177-0.379,0.456-0.379h0.405c0.203,0,0.355,0.101,0.431,0.253l5.573,11.955
		h0.076l5.573-11.955c0.076-0.152,0.203-0.253,0.431-0.253h0.405c0.278,0,0.431,0.177,0.456,0.379l2.989,17.021
		c0.076,0.355-0.127,0.583-0.456,0.583h-2.305c-0.228,0-0.431-0.202-0.481-0.38l-1.495-9.6h-0.076l-4.433,9.954
		c-0.051,0.151-0.203,0.278-0.431,0.278h-0.456c-0.228,0-0.355-0.127-0.431-0.278l-4.483-9.954h-0.076l-1.469,9.6
		c-0.025,0.178-0.228,0.38-0.456,0.38h-2.28c-0.329,0-0.532-0.228-0.481-0.583L79.716,288.097z"/>
	<path fill="#B2B8C1" d="M133.911,288.453c0-0.254,0.203-0.481,0.481-0.481h10.309c0.279,0,0.481,0.228,0.481,0.481v2.076
		c0,0.254-0.203,0.481-0.481,0.481h-7.498v4.154h6.256c0.253,0,0.481,0.228,0.481,0.481v2.102c0,0.279-0.228,0.482-0.481,0.482
		h-6.256v4.432h7.498c0.279,0,0.481,0.229,0.481,0.482v2.076c0,0.254-0.203,0.481-0.481,0.481h-10.309
		c-0.278,0-0.481-0.228-0.481-0.481V288.453z"/>
	<path fill="#B2B8C1" d="M180.255,303.472l1.317-1.342c0.279-0.254,0.532-0.203,0.76,0.025c0.33,0.354,0.836,0.811,1.672,0.811
		c0.988,0,2.026-0.811,2.026-2.559v-11.955c0-0.254,0.203-0.481,0.481-0.481h2.381c0.279,0,0.481,0.228,0.481,0.481v11.955
		c0,3.521-2.356,5.547-5.319,5.547c-2.204,0-3.419-1.316-3.85-1.849C180.078,303.904,180.104,303.65,180.255,303.472z"/>
	<path fill="#B2B8C1" d="M235.263,287.718c5.066,0,9.119,4.078,9.119,9.144s-4.053,9.093-9.119,9.093s-9.093-4.027-9.093-9.093
		S230.197,287.718,235.263,287.718z M235.263,302.662c3.191,0,5.826-2.608,5.826-5.8c0-3.192-2.635-5.852-5.826-5.852
		s-5.801,2.659-5.801,5.852C229.462,300.053,232.072,302.662,235.263,302.662z"/>
	<path fill="#B2B8C1" d="M281.632,288.453c0-0.254,0.203-0.481,0.48-0.481h7.244c3.041,0,5.522,2.432,5.522,5.446
		c0,2.33-1.545,4.229-3.749,5.115l3.471,6.435c0.178,0.329,0,0.734-0.431,0.734h-2.659c-0.229,0-0.355-0.126-0.406-0.228
		l-3.369-6.713h-2.811v6.459c0,0.254-0.229,0.481-0.481,0.481h-2.331c-0.277,0-0.48-0.228-0.48-0.481V288.453z M289.08,296.051
		c1.342,0,2.508-1.165,2.508-2.584c0-1.343-1.166-2.457-2.508-2.457h-4.129v5.041H289.08z"/>
</g>
<g>
	<path fill="#B2B8C1" d="M1.3,2.25c0-0.143,0.128-0.257,0.271-0.257h0.357L7.87,8.306h0.014V2.407c0-0.143,0.114-0.271,0.271-0.271
		h1.314c0.143,0,0.271,0.128,0.271,0.271v9.612c0,0.143-0.128,0.257-0.271,0.257H9.126l-5.97-6.556H3.142v6.142
		c0,0.143-0.114,0.271-0.271,0.271H1.571c-0.143,0-0.271-0.128-0.271-0.271V2.25z"/>
	<path fill="#B2B8C1" d="M31.319,2.407c0-0.143,0.129-0.271,0.271-0.271h1.357c0.157,0,0.271,0.128,0.271,0.271v5.841
		c0,1.214,0.829,2.171,2.071,2.171c1.242,0,2.085-0.957,2.085-2.156V2.407c0-0.143,0.114-0.271,0.271-0.271h1.357
		c0.143,0,0.271,0.128,0.271,0.271v5.941c0,2.171-1.728,3.928-3.984,3.928c-2.242,0-3.971-1.757-3.971-3.928V2.407z"/>
	<path fill="#B2B8C1" d="M60.854,2.407c0-0.143,0.114-0.271,0.271-0.271h5.812c0.157,0,0.271,0.128,0.271,0.271v1.171
		c0,0.143-0.114,0.271-0.271,0.271h-4.228v2.342h3.528c0.143,0,0.271,0.129,0.271,0.271v1.186c0,0.157-0.128,0.271-0.271,0.271
		h-3.528v2.499h4.228c0.157,0,0.271,0.129,0.271,0.271v1.171c0,0.143-0.114,0.271-0.271,0.271h-5.812
		c-0.157,0-0.271-0.128-0.271-0.271V2.407z"/>
	<path fill="#B2B8C1" d="M87.077,2.507c-0.085-0.186,0.029-0.371,0.243-0.371h1.457c0.128,0,0.214,0.085,0.243,0.157l2.742,6.142
		h0.1l2.742-6.142c0.028-0.071,0.114-0.157,0.243-0.157h1.457c0.214,0,0.329,0.186,0.243,0.371l-4.428,9.612
		c-0.043,0.086-0.114,0.157-0.243,0.157h-0.143c-0.128,0-0.2-0.071-0.243-0.157L87.077,2.507z"/>
	<path fill="#B2B8C1" d="M121.311,1.993c2.856,0,5.142,2.299,5.142,5.156s-2.285,5.127-5.142,5.127s-5.127-2.271-5.127-5.127
		S118.454,1.993,121.311,1.993z M121.311,10.419c1.8,0,3.285-1.471,3.285-3.271c0-1.799-1.485-3.299-3.285-3.299
		s-3.271,1.5-3.271,3.299C118.04,8.949,119.511,10.419,121.311,10.419z"/>
	<path fill="#B2B8C1" d="M169.729,2.407c0-0.143,0.114-0.271,0.271-0.271h3.356c1.757,0,3.199,1.428,3.199,3.156
		c0,1.771-1.442,3.213-3.185,3.213h-1.785v3.356c0,0.143-0.128,0.271-0.271,0.271H170c-0.157,0-0.271-0.128-0.271-0.271V2.407z
		 M173.242,6.763c0.8,0,1.471-0.643,1.471-1.485c0-0.785-0.671-1.385-1.471-1.385h-1.657v2.871H173.242z"/>
	<path fill="#B2B8C1" d="M197.308,2.407c0-0.143,0.114-0.271,0.271-0.271h4.084c1.714,0,3.114,1.371,3.114,3.07
		c0,1.314-0.872,2.385-2.114,2.885l1.957,3.627c0.1,0.186,0,0.414-0.243,0.414h-1.5c-0.128,0-0.2-0.071-0.229-0.128L200.75,8.22
		h-1.585v3.642c0,0.143-0.128,0.271-0.271,0.271h-1.313c-0.157,0-0.271-0.128-0.271-0.271V2.407z M201.506,6.692
		c0.757,0,1.414-0.657,1.414-1.457c0-0.757-0.657-1.385-1.414-1.385h-2.328v2.842H201.506z"/>
	<path fill="#B2B8C1" d="M230.356,1.993c2.856,0,5.142,2.299,5.142,5.156s-2.285,5.127-5.142,5.127s-5.127-2.271-5.127-5.127
		S227.5,1.993,230.356,1.993z M230.356,10.419c1.8,0,3.284-1.471,3.284-3.271c0-1.799-1.484-3.299-3.284-3.299
		s-3.271,1.5-3.271,3.299C227.085,8.949,228.556,10.419,230.356,10.419z"/>
	<path fill="#B2B8C1" d="M258.234,7.32l-3.257-4.77c-0.114-0.186,0-0.414,0.229-0.414h1.457c0.114,0,0.186,0.071,0.229,0.128
		l2.285,3.285l2.285-3.285c0.042-0.057,0.114-0.128,0.229-0.128h1.472c0.229,0,0.342,0.229,0.229,0.414l-3.3,4.756v4.556
		c0,0.143-0.128,0.271-0.271,0.271h-1.313c-0.158,0-0.271-0.128-0.271-0.271V7.32z"/>
	<path fill="#B2B8C1" d="M283.77,2.407c0-0.143,0.114-0.271,0.271-0.271h5.813c0.157,0,0.271,0.128,0.271,0.271v1.171
		c0,0.143-0.114,0.271-0.271,0.271h-4.228v2.342h3.527c0.143,0,0.271,0.129,0.271,0.271v1.186c0,0.157-0.129,0.271-0.271,0.271
		h-3.527v2.499h4.228c0.157,0,0.271,0.129,0.271,0.271v1.171c0,0.143-0.114,0.271-0.271,0.271h-5.813
		c-0.156,0-0.271-0.128-0.271-0.271V2.407z"/>
	<path fill="#B2B8C1" d="M315.677,1.993c1.441,0,2.484,0.457,3.456,1.328c0.128,0.114,0.128,0.286,0.015,0.4l-0.871,0.9
		c-0.101,0.114-0.244,0.114-0.357,0c-0.6-0.528-1.4-0.843-2.199-0.843c-1.828,0-3.186,1.528-3.186,3.328
		c0,1.786,1.371,3.299,3.199,3.299c0.857,0,1.586-0.329,2.186-0.814c0.113-0.1,0.271-0.086,0.357,0l0.885,0.914
		c0.114,0.1,0.086,0.286-0.014,0.386c-0.972,0.942-2.199,1.385-3.471,1.385c-2.857,0-5.156-2.271-5.156-5.127
		S312.82,1.993,315.677,1.993z"/>
	<path fill="#B2B8C1" d="M341.484,3.85h-2.186c-0.156,0-0.271-0.129-0.271-0.271V2.407c0-0.143,0.115-0.271,0.271-0.271h6.242
		c0.156,0,0.271,0.128,0.271,0.271v1.171c0,0.143-0.115,0.271-0.271,0.271h-2.186v8.012c0,0.143-0.129,0.271-0.271,0.271h-1.328
		c-0.143,0-0.271-0.128-0.271-0.271V3.85z"/>
	<path fill="#B2B8C1" d="M370.735,1.993c2.856,0,5.142,2.299,5.142,5.156s-2.285,5.127-5.142,5.127s-5.128-2.271-5.128-5.127
		S367.878,1.993,370.735,1.993z M370.735,10.419c1.8,0,3.284-1.471,3.284-3.271c0-1.799-1.484-3.299-3.284-3.299
		s-3.271,1.5-3.271,3.299C367.464,8.949,368.935,10.419,370.735,10.419z"/>
</g>
</svg>
