<?xml version="1.0" encoding="utf-8"?>
<!-- Generator: Adobe Illustrator 16.2.1, SVG Export Plug-In . SVG Version: 6.00 Build 0)  -->
<!DOCTYPE svg PUBLIC "-//W3C//DTD SVG 1.1//EN" "http://www.w3.org/Graphics/SVG/1.1/DTD/svg11.dtd">
<svg version="1.1" id="Capa_1" xmlns="http://www.w3.org/2000/svg" xmlns:xlink="http://www.w3.org/1999/xlink" x="0px" y="0px"
	 width="371.869px" height="234.963px" viewBox="0 0 371.869 234.963" enable-background="new 0 0 371.869 234.963"
	 xml:space="preserve">
<g>
	<g>
		<path fill="#FFFFFF" d="M18.501,30.829c4.536,0,7.814,1.572,10.868,4.176c0.359,0.359,0.404,0.898,0.045,1.257
			c-0.404,0.404-0.898,0.854-1.258,1.258c-0.404,0.449-0.673,0.404-1.167-0.045c-2.29-2.021-5.523-3.503-8.532-3.503
			c-7.095,0-12.484,5.928-12.484,12.888c0,6.916,5.389,12.978,12.484,12.978c4.94,0,8.083-1.886,8.083-1.886v-6.287h-5.165
			c-0.494,0-0.853-0.359-0.853-0.809v-1.662c0-0.494,0.359-0.853,0.853-0.853h7.769c0.449,0,0.808,0.404,0.808,0.853v10.284
			c0,0.225-0.18,0.584-0.359,0.719c0,0-4.58,2.964-11.092,2.964c-8.981,0-16.211-7.14-16.211-16.122S9.52,30.829,18.501,30.829z"/>
		<path fill="#FFFFFF" d="M67.98,32.131c0-0.449,0.359-0.853,0.853-0.853h17.693c0.494,0,0.853,0.404,0.853,0.853v1.302
			c0,0.449-0.359,0.854-0.853,0.854H71.438v10.957h12.888c0.449,0,0.854,0.404,0.854,0.854v1.302c0,0.494-0.404,0.853-0.854,0.853
			H71.438v11.451h15.089c0.494,0,0.853,0.404,0.853,0.853v1.303c0,0.449-0.359,0.853-0.853,0.853H68.833
			c-0.494,0-0.853-0.404-0.853-0.853V32.131z M73.594,26.562c-0.18-0.359,0-0.718,0.27-0.853l6.736-3.772
			c0.27-0.179,0.943-0.269,1.167,0.135l0.809,1.617c0.18,0.359,0.09,0.809-0.27,0.943l-7.23,3.008
			c-0.629,0.27-0.854,0.27-1.033-0.09L73.594,26.562z"/>
		<path fill="#FFFFFF" d="M125.095,31.637c0-0.449,0.404-0.809,0.853-0.809h1.123l20.253,25.238h0.09V32.131
			c0-0.449,0.359-0.853,0.854-0.853h1.572c0.449,0,0.853,0.404,0.853,0.853v30.222c0,0.449-0.404,0.809-0.853,0.809h-0.809
			L128.417,37.43h-0.044v24.429c0,0.449-0.359,0.853-0.854,0.853h-1.572c-0.449,0-0.853-0.404-0.853-0.853V31.637z"/>
		<path fill="#FFFFFF" d="M204.211,30.829c8.981,0,16.166,7.23,16.166,16.211s-7.185,16.122-16.166,16.122
			s-16.122-7.14-16.122-16.122S195.229,30.829,204.211,30.829z M204.211,60.018c7.141,0,13.023-5.838,13.023-12.978
			s-5.883-13.068-13.023-13.068c-7.14,0-12.978,5.928-12.978,13.068S197.071,60.018,204.211,60.018z"/>
		<path fill="#FFFFFF" d="M253.331,32.445c-0.27-0.584,0.09-1.167,0.763-1.167h1.797c0.404,0,0.674,0.27,0.764,0.494l11.182,25.147
			h0.18l11.182-25.147c0.09-0.225,0.404-0.494,0.764-0.494h1.796c0.674,0,1.032,0.583,0.763,1.167l-13.65,30.222
			c-0.135,0.27-0.404,0.494-0.764,0.494h-0.449c-0.314,0-0.629-0.225-0.764-0.494L253.331,32.445z"/>
		<path fill="#FFFFFF" d="M311.836,61.545l13.652-30.222c0.135-0.27,0.359-0.494,0.764-0.494h0.448c0.404,0,0.629,0.225,0.764,0.494
			l13.562,30.222c0.27,0.583-0.09,1.167-0.764,1.167h-1.796c-0.403,0-0.673-0.27-0.763-0.494l-3.324-7.41h-15.941l-3.277,7.41
			c-0.09,0.225-0.359,0.494-0.764,0.494H312.6C311.926,62.712,311.566,62.128,311.836,61.545z M333.167,52.024
			c-2.2-4.895-4.356-9.834-6.556-14.729h-0.359l-6.557,14.729H333.167z"/>
	</g>
</g>
<g>
	<path fill="#FFFFFF" d="M1.3,2.407c0-0.143,0.114-0.271,0.271-0.271h3.356c1.757,0,3.199,1.428,3.199,3.156
		c0,1.771-1.442,3.214-3.185,3.214H3.156v3.356c0,0.143-0.128,0.271-0.271,0.271H1.571c-0.157,0-0.271-0.128-0.271-0.271V2.407z
		 M4.813,6.763c0.8,0,1.471-0.643,1.471-1.485c0-0.786-0.671-1.385-1.471-1.385H3.156v2.871H4.813z"/>
	<path fill="#FFFFFF" d="M28.879,2.407c0-0.143,0.114-0.271,0.271-0.271h4.085c1.714,0,3.113,1.371,3.113,3.071
		c0,1.314-0.871,2.385-2.113,2.885l1.957,3.628c0.1,0.186,0,0.414-0.243,0.414h-1.5c-0.128,0-0.2-0.071-0.229-0.128L32.321,8.22
		h-1.585v3.642c0,0.143-0.128,0.271-0.271,0.271H29.15c-0.157,0-0.271-0.128-0.271-0.271V2.407z M33.078,6.692
		c0.757,0,1.414-0.657,1.414-1.457c0-0.757-0.657-1.385-1.414-1.385H30.75v2.842H33.078z"/>
	<path fill="#FFFFFF" d="M61.927,1.993c2.856,0,5.142,2.299,5.142,5.156s-2.285,5.127-5.142,5.127S56.8,10.005,56.8,7.149
		S59.071,1.993,61.927,1.993z M61.927,10.419c1.8,0,3.285-1.471,3.285-3.271c0-1.8-1.485-3.299-3.285-3.299s-3.271,1.5-3.271,3.299
		C58.657,8.948,60.127,10.419,61.927,10.419z"/>
	<path fill="#FFFFFF" d="M89.804,7.32L86.548,2.55c-0.114-0.186,0-0.414,0.229-0.414h1.457c0.114,0,0.186,0.071,0.229,0.128
		l2.285,3.285l2.285-3.285c0.042-0.057,0.114-0.128,0.229-0.128h1.471c0.229,0,0.343,0.229,0.229,0.414l-3.299,4.756v4.556
		c0,0.143-0.128,0.271-0.271,0.271h-1.314c-0.157,0-0.271-0.128-0.271-0.271V7.32z"/>
	<path fill="#FFFFFF" d="M115.341,2.407c0-0.143,0.114-0.271,0.271-0.271h5.812c0.157,0,0.271,0.128,0.271,0.271v1.171
		c0,0.143-0.114,0.271-0.271,0.271h-4.228v2.342h3.528c0.143,0,0.271,0.128,0.271,0.271v1.185c0,0.157-0.128,0.271-0.271,0.271
		h-3.528v2.5h4.228c0.157,0,0.271,0.128,0.271,0.271v1.171c0,0.143-0.114,0.271-0.271,0.271h-5.812
		c-0.157,0-0.271-0.128-0.271-0.271V2.407z"/>
	<path fill="#FFFFFF" d="M147.248,1.993c1.443,0,2.485,0.457,3.457,1.328c0.128,0.114,0.128,0.286,0.014,0.4l-0.871,0.9
		c-0.1,0.114-0.243,0.114-0.357,0c-0.6-0.529-1.4-0.843-2.2-0.843c-1.828,0-3.185,1.528-3.185,3.328
		c0,1.785,1.371,3.299,3.199,3.299c0.857,0,1.585-0.329,2.186-0.814c0.114-0.1,0.271-0.085,0.357,0l0.885,0.914
		c0.114,0.1,0.086,0.286-0.014,0.386c-0.971,0.943-2.2,1.386-3.471,1.386c-2.856,0-5.156-2.271-5.156-5.127
		S144.392,1.993,147.248,1.993z"/>
	<path fill="#FFFFFF" d="M173.055,3.85h-2.185c-0.157,0-0.271-0.128-0.271-0.271V2.407c0-0.143,0.114-0.271,0.271-0.271h6.241
		c0.157,0,0.271,0.128,0.271,0.271v1.171c0,0.143-0.114,0.271-0.271,0.271h-2.185v8.012c0,0.143-0.128,0.271-0.271,0.271h-1.328
		c-0.143,0-0.271-0.128-0.271-0.271V3.85z"/>
	<path fill="#FFFFFF" d="M202.306,1.993c2.856,0,5.142,2.299,5.142,5.156s-2.285,5.127-5.142,5.127s-5.127-2.271-5.127-5.127
		S199.45,1.993,202.306,1.993z M202.306,10.419c1.8,0,3.285-1.471,3.285-3.271c0-1.8-1.485-3.299-3.285-3.299
		s-3.271,1.5-3.271,3.299C199.036,8.948,200.506,10.419,202.306,10.419z"/>
</g>
<g>
	<g>
		<path fill="#FFFFFF" d="M124.448,111.561c0-0.253,0.228-0.456,0.481-0.456h0.633L136.1,122.3h0.025v-10.461
			c0-0.253,0.203-0.481,0.481-0.481h2.33c0.253,0,0.481,0.228,0.481,0.481v17.047c0,0.254-0.228,0.456-0.481,0.456h-0.608
			l-10.588-11.626h-0.025v10.891c0,0.254-0.202,0.482-0.481,0.482h-2.305c-0.253,0-0.481-0.229-0.481-0.482V111.561z"/>
		<path fill="#FFFFFF" d="M185.787,111.104c5.066,0,9.119,4.078,9.119,9.145c0,5.065-4.053,9.093-9.119,9.093
			s-9.093-4.027-9.093-9.093C176.694,115.183,180.721,111.104,185.787,111.104z M185.787,126.049c3.191,0,5.826-2.608,5.826-5.8
			c0-3.192-2.634-5.852-5.826-5.852s-5.8,2.659-5.8,5.852C179.987,123.44,182.596,126.049,185.787,126.049z"/>
		<path fill="#FFFFFF" d="M274.069,114.397h-3.876c-0.278,0-0.48-0.228-0.48-0.481v-2.077c0-0.253,0.202-0.481,0.48-0.481h11.069
			c0.278,0,0.481,0.228,0.481,0.481v2.077c0,0.253-0.203,0.481-0.481,0.481h-3.876v14.209c0,0.254-0.227,0.482-0.48,0.482h-2.355
			c-0.254,0-0.481-0.229-0.481-0.482V114.397z"/>
		<path fill="#FFFFFF" d="M318.312,111.839c0-0.253,0.202-0.481,0.481-0.481h10.309c0.279,0,0.481,0.228,0.481,0.481v2.077
			c0,0.253-0.202,0.481-0.481,0.481h-7.498v4.154h6.258c0.252,0,0.48,0.228,0.48,0.48v2.103c0,0.278-0.229,0.481-0.48,0.481h-6.258
			v4.433h7.498c0.279,0,0.481,0.228,0.481,0.481v2.076c0,0.254-0.202,0.482-0.481,0.482h-10.309c-0.279,0-0.481-0.229-0.481-0.482
			V111.839z"/>
		<path fill="#FFFFFF" d="M70.659,159.179c5.066,0,9.119,4.078,9.119,9.145c0,3.445-2.001,6.484-4.939,8.105l3.167,4.99
			c0.228,0.354,0,0.76-0.405,0.76h-2.685c-0.101,0-0.329-0.102-0.405-0.254l-2.71-4.584c-0.405,0.051-0.836,0.076-1.14,0.076
			c-5.066,0-9.093-4.027-9.093-9.094S65.593,159.179,70.659,159.179z M70.659,174.124c3.191,0,5.826-2.609,5.826-5.801
			s-2.634-5.852-5.826-5.852s-5.8,2.66-5.8,5.852S67.467,174.124,70.659,174.124z"/>
		<path fill="#FFFFFF" d="M116.8,159.913c0-0.253,0.228-0.48,0.481-0.48h2.407c0.278,0,0.481,0.228,0.481,0.48v10.36
			c0,2.153,1.469,3.851,3.673,3.851s3.698-1.697,3.698-3.825v-10.386c0-0.253,0.203-0.48,0.481-0.48h2.406
			c0.253,0,0.481,0.228,0.481,0.48v10.537c0,3.851-3.065,6.967-7.067,6.967c-3.977,0-7.042-3.116-7.042-6.967V159.913z"/>
		<path fill="#FFFFFF" d="M169.198,159.913c0-0.253,0.203-0.48,0.481-0.48h10.309c0.279,0,0.481,0.228,0.481,0.48v2.078
			c0,0.253-0.203,0.48-0.481,0.48h-7.498v4.154h6.256c0.253,0,0.481,0.229,0.481,0.481v2.103c0,0.278-0.228,0.48-0.481,0.48h-6.256
			v4.434h7.498c0.279,0,0.481,0.228,0.481,0.48v2.077c0,0.253-0.203,0.481-0.481,0.481h-10.309c-0.278,0-0.481-0.229-0.481-0.481
			V159.913z"/>
		<path fill="#FFFFFF" d="M218.024,159.913c0-0.253,0.202-0.48,0.456-0.48h6.003c4.889,0,8.891,3.977,8.891,8.84
			c0,4.914-4.002,8.891-8.891,8.891h-6.003c-0.254,0-0.456-0.229-0.456-0.481V159.913z M224.18,174.073
			c3.293,0,5.699-2.482,5.699-5.801c0-3.293-2.406-5.775-5.699-5.775h-2.889v11.576H224.18z"/>
		<path fill="#FFFFFF" d="M270.65,159.913c0-0.253,0.203-0.48,0.48-0.48h10.31c0.278,0,0.481,0.228,0.481,0.48v2.078
			c0,0.253-0.203,0.48-0.481,0.48h-7.497v4.154h6.256c0.254,0,0.481,0.229,0.481,0.481v2.103c0,0.278-0.228,0.48-0.481,0.48h-6.256
			v4.434h7.497c0.278,0,0.481,0.228,0.481,0.48v2.077c0,0.253-0.203,0.481-0.481,0.481h-10.31c-0.277,0-0.48-0.229-0.48-0.481
			V159.913z"/>
		<path fill="#FFFFFF" d="M318.438,174.681l0.911-1.57c0.203-0.354,0.634-0.354,0.861-0.178c0.127,0.076,2.179,1.57,3.825,1.57
			c1.317,0,2.306-0.861,2.306-1.949c0-1.293-1.09-2.179-3.217-3.04c-2.382-0.963-4.763-2.482-4.763-5.472
			c0-2.254,1.672-4.863,5.699-4.863c2.583,0,4.56,1.317,5.065,1.697c0.254,0.152,0.33,0.583,0.152,0.836l-0.963,1.443
			c-0.202,0.305-0.582,0.508-0.887,0.305c-0.202-0.127-2.127-1.394-3.52-1.394c-1.444,0-2.229,0.963-2.229,1.773
			c0,1.19,0.937,2.001,2.989,2.837c2.457,0.988,5.293,2.457,5.293,5.725c0,2.609-2.254,5.016-5.825,5.016
			c-3.192,0-5.065-1.495-5.573-1.977C318.337,175.213,318.211,175.086,318.438,174.681z"/>
		<path fill="#FFFFFF" d="M114.47,224.579l7.877-17.047c0.076-0.152,0.203-0.278,0.431-0.278h0.253c0.253,0,0.354,0.126,0.431,0.278
			l7.801,17.047c0.152,0.33-0.051,0.658-0.431,0.658h-2.204c-0.38,0-0.557-0.151-0.734-0.506l-1.241-2.736h-7.574l-1.241,2.736
			c-0.101,0.253-0.329,0.506-0.734,0.506H114.9C114.521,225.237,114.318,224.909,114.47,224.579z M125.412,219.185l-2.533-5.573
			h-0.076l-2.482,5.573H125.412z"/>
		<path fill="#FFFFFF" d="M167.501,207.988c0-0.253,0.203-0.481,0.481-0.481h5.801c3.014,0,5.344,2.026,5.344,4.686
			c0,1.951-1.596,3.471-2.786,4.028c1.342,0.431,3.293,1.798,3.293,4.128c0,2.838-2.432,4.889-5.522,4.889h-6.13
			c-0.278,0-0.481-0.228-0.481-0.48V207.988z M173.479,214.954c1.292,0,2.178-1.014,2.178-2.279c0-1.268-0.886-2.153-2.178-2.153
			h-2.71v4.433H173.479z M173.833,222.249c1.267,0,2.28-0.988,2.28-2.305c0-1.268-1.267-2.204-2.583-2.204h-2.761v4.509H173.833z"/>
		<path fill="#FFFFFF" d="M214.757,224.579l7.878-17.047c0.076-0.152,0.202-0.278,0.43-0.278h0.254c0.254,0,0.354,0.126,0.431,0.278
			l7.802,17.047c0.151,0.33-0.051,0.658-0.432,0.658h-2.203c-0.38,0-0.557-0.151-0.734-0.506l-1.241-2.736h-7.573l-1.242,2.736
			c-0.101,0.253-0.328,0.506-0.734,0.506h-2.203C214.808,225.237,214.605,224.909,214.757,224.579z M225.699,219.185l-2.533-5.573
			h-0.076l-2.482,5.573H225.699z"/>
		<path fill="#FFFFFF" d="M265.762,223.009l1.316-1.342c0.279-0.254,0.533-0.203,0.76,0.024c0.33,0.354,0.836,0.811,1.672,0.811
			c0.988,0,2.027-0.811,2.027-2.558v-11.956c0-0.253,0.202-0.481,0.48-0.481h2.381c0.279,0,0.482,0.229,0.482,0.481v11.956
			c0,3.521-2.356,5.547-5.32,5.547c-2.203,0-3.419-1.317-3.85-1.85C265.584,223.439,265.609,223.187,265.762,223.009z"/>
		<path fill="#FFFFFF" d="M320.77,207.254c5.066,0,9.119,4.078,9.119,9.144c0,5.066-4.053,9.094-9.119,9.094
			s-9.094-4.027-9.094-9.094C311.676,211.332,315.703,207.254,320.77,207.254z M320.77,222.198c3.191,0,5.826-2.609,5.826-5.801
			s-2.635-5.851-5.826-5.851s-5.801,2.659-5.801,5.851S317.578,222.198,320.77,222.198z"/>
	</g>
</g>
</svg>
